<svg xmlns="http://www.w3.org/2000/svg" xmlns:xlink="http://www.w3.org/1999/xlink" width="550" zoomAndPan="magnify" viewBox="0 0 412.5 104.999996" height="140" preserveAspectRatio="xMidYMid meet" version="1.0"><defs><g/><clipPath id="3a62180e04"><path d="M 1.007812 0.957031 L 77.300781 0.957031 L 77.300781 88.039062 L 1.007812 88.039062 Z M 1.007812 0.957031 " clip-rule="nonzero"/></clipPath><clipPath id="bb7dbf7581"><path d="M 18 16.90625 L 67.121094 16.90625 L 67.121094 63.855469 L 18 63.855469 Z M 18 16.90625 " clip-rule="nonzero"/></clipPath><clipPath id="0a2b6fc9a3"><rect x="0" width="78" y="0" height="89"/></clipPath><clipPath id="c8e2cf403d"><rect x="0" width="323" y="0" height="83"/></clipPath></defs><g transform="matrix(1, 0, 0, 1, 3, 8)"><g clip-path="url(#0a2b6fc9a3)"><g clip-path="url(#3a62180e04)"><path fill="#ffde59" d="M 58.152344 7.671875 C 48.839844 7.488281 41.585938 2.652344 39.105469 0.957031 C 36.625 2.652344 29.371094 7.488281 20.058594 7.671875 C 9.835938 7.914062 3.425781 5.433594 1.007812 3.800781 L 1.007812 37.058594 C 1.007812 58.105469 17.335938 81.871094 39.105469 88.039062 C 49.988281 84.953125 59.542969 77.457031 66.316406 68.144531 C 73.089844 58.828125 77.203125 47.582031 77.203125 37.058594 L 77.203125 3.800781 C 74.785156 5.433594 68.375 7.914062 58.152344 7.671875 Z M 73.089844 37.058594 C 73.089844 46.433594 69.402344 56.894531 62.992188 65.722656 C 56.582031 74.550781 48.117188 80.902344 39.105469 83.804688 C 30.035156 80.960938 21.628906 74.550781 15.21875 65.785156 C 8.808594 57.015625 5.121094 46.433594 5.121094 37.058594 L 5.121094 9.96875 C 9.535156 11.238281 14.128906 11.84375 18.726562 11.78125 L 20.175781 11.78125 C 26.527344 11.601562 32.996094 9.546875 39.105469 5.796875 C 45.210938 9.546875 51.683594 11.601562 58.03125 11.722656 L 59.484375 11.722656 C 64.078125 11.78125 68.675781 11.179688 73.089844 9.910156 Z M 69.039062 15.109375 L 69.039062 37.058594 C 69.039062 45.648438 65.652344 55.203125 59.726562 63.304688 C 54.101562 70.984375 46.84375 76.667969 39.105469 79.449219 C 31.363281 76.667969 24.109375 70.984375 18.484375 63.304688 C 12.558594 55.203125 9.171875 45.585938 9.171875 37.058594 L 9.171875 15.109375 C 12.316406 15.652344 15.519531 15.894531 18.726562 15.894531 L 20.238281 15.894531 C 26.890625 15.652344 33.300781 13.839844 39.105469 10.574219 C 44.851562 13.839844 51.320312 15.652344 57.972656 15.894531 L 59.484375 15.894531 C 62.6875 15.894531 65.894531 15.59375 69.039062 15.109375 Z M 69.039062 15.109375 " fill-opacity="1" fill-rule="nonzero"/></g><g clip-path="url(#bb7dbf7581)"><path fill="#000000" d="M 66.695312 20.894531 C 65.550781 22.257812 63.835938 23.085938 62.046875 23.085938 C 61.273438 23.085938 60.445312 22.898438 59.632812 22.796875 C 60.386719 22.5 61.1875 22.3125 61.914062 21.929688 C 63.617188 21.042969 64.300781 18.863281 63.480469 17.140625 C 63.371094 16.90625 63 16.976562 62.9375 17.214844 C 62.398438 19.257812 60.320312 20.214844 58.414062 20.585938 C 57.375 20.789062 56.25 20.769531 55.253906 21.148438 C 54.625 21.382812 54.015625 21.820312 53.722656 22.433594 C 52.265625 22.105469 50.777344 21.863281 49.289062 22.050781 C 47.75 22.242188 46.277344 22.859375 45.019531 23.761719 C 43.523438 24.839844 42.371094 26.269531 41.53125 27.878906 C 40.296875 29.121094 39.214844 30.511719 38.324219 32.015625 C 37.554688 33.316406 36.949219 34.699219 36.457031 36.121094 C 35.441406 37.707031 34.085938 39.027344 32.59375 40.199219 C 30.394531 40.953125 28.222656 41.84375 26.441406 43.375 C 26.148438 43.625 25.871094 43.894531 25.609375 44.179688 C 25.074219 43.929688 24.785156 43.417969 24.769531 42.839844 C 24.761719 42.554688 24.804688 42.277344 24.882812 42 C 24.929688 41.863281 24.988281 41.722656 25.054688 41.585938 C 25.078125 41.539062 25.089844 41.492188 25.089844 41.449219 C 25.414062 40.730469 25.925781 40.058594 26.320312 39.445312 C 26.949219 38.460938 27.535156 37.386719 27.597656 36.195312 C 27.648438 35.210938 27.273438 34.152344 26.453125 33.566406 C 25.875 33.15625 25.085938 33.050781 24.425781 33.289062 C 23.855469 32.4375 22.71875 32.3125 21.914062 32.941406 C 21.464844 33.289062 21.171875 33.769531 20.824219 34.210938 C 20.472656 34.660156 19.875 35.234375 19.246094 34.953125 C 19.054688 34.867188 18.789062 34.964844 18.800781 35.210938 C 18.820312 35.703125 19.167969 36.039062 19.582031 36.292969 C 20.605469 36.921875 21.683594 36.90625 22.472656 36.59375 C 23.511719 36.179688 24.21875 35.152344 24.28125 34.046875 C 24.945312 33.535156 25.953125 33.75 26.480469 34.40625 C 27.1875 35.28125 27.085938 36.496094 26.703125 37.484375 C 26.269531 38.59375 25.503906 39.527344 24.917969 40.550781 C 24.761719 40.816406 24.613281 41.101562 24.492188 41.394531 C 23.875 42.734375 23.933594 44.257812 24.597656 45.507812 C 24.441406 45.757812 24.300781 46.019531 24.175781 46.289062 C 23.566406 47.589844 23.292969 49.015625 23.027344 50.414062 C 22.839844 51.402344 22.675781 52.394531 22.535156 53.390625 C 22.167969 53.480469 21.796875 53.261719 21.398438 53.34375 C 20.96875 53.4375 20.769531 53.800781 20.671875 54.195312 C 20.53125 54.777344 20.425781 55.367188 20.304688 55.953125 C 20.054688 57.144531 19.761719 58.335938 19.554688 59.539062 C 19.542969 59.625 19.53125 59.707031 19.53125 59.789062 C 19.273438 60.207031 19.015625 60.628906 18.757812 61.046875 C 18.453125 61.539062 17.914062 62.253906 18.457031 62.777344 C 18.542969 62.859375 18.652344 62.917969 18.75 62.980469 C 18.914062 63.078125 18.933594 63.128906 18.933594 63.324219 C 18.933594 63.605469 18.972656 63.882812 19.234375 64.039062 C 19.265625 64.058594 19.300781 64.074219 19.335938 64.089844 L 21.84375 64.089844 C 21.902344 64.046875 21.941406 63.988281 21.957031 63.917969 C 21.984375 63.878906 22 63.828125 22.003906 63.765625 C 22.027344 63.246094 21.777344 62.796875 21.375 62.515625 C 21.355469 62.457031 21.332031 62.402344 21.3125 62.34375 C 21.292969 62.171875 21.246094 61.980469 21.148438 61.84375 C 21.125 61.820312 21.207031 61.558594 21.214844 61.519531 C 21.238281 61.402344 21.269531 61.292969 21.289062 61.179688 C 21.332031 60.941406 21.378906 60.699219 21.425781 60.460938 C 21.519531 59.980469 21.632812 59.507812 21.78125 59.042969 C 21.902344 58.671875 22.046875 58.3125 22.25 57.984375 C 22.734375 57.207031 23.539062 56.863281 24.382812 56.601562 C 25.46875 56.265625 26.53125 55.964844 27.332031 55.109375 C 28.03125 54.367188 28.539062 53.433594 28.957031 52.5 C 29.335938 52.878906 29.617188 53.328125 29.644531 53.882812 C 29.664062 54.308594 29.542969 54.792969 29.183594 55.054688 C 28.777344 55.355469 28.210938 55.269531 27.820312 55.613281 C 27.433594 55.949219 27.394531 56.46875 27.4375 56.945312 C 27.484375 57.539062 27.59375 58.128906 27.742188 58.703125 C 27.898438 59.292969 28.105469 59.871094 28.363281 60.421875 C 28.300781 60.886719 28.210938 61.347656 28.082031 61.800781 C 27.976562 62.179688 27.75 62.675781 28.0625 63.023438 C 28.148438 63.121094 28.269531 63.1875 28.394531 63.210938 C 28.40625 63.480469 28.453125 63.742188 28.535156 64.003906 C 28.546875 64.035156 28.558594 64.0625 28.578125 64.089844 L 32.042969 64.089844 C 32.101562 64.019531 32.128906 63.914062 32.109375 63.8125 C 31.996094 63.085938 31.449219 62.480469 30.75 62.277344 C 30.667969 61.898438 30.472656 61.5625 30.1875 61.3125 C 30.179688 60.082031 30.472656 58.867188 31.007812 57.773438 C 31.554688 57.824219 32.105469 57.9375 32.625 57.96875 C 33.707031 58.035156 34.660156 57.703125 35.433594 56.941406 C 36.214844 56.175781 36.785156 55.160156 37.207031 54.160156 C 37.628906 53.15625 37.878906 52.0625 37.8125 50.972656 C 40.101562 49.683594 43.191406 49.707031 45.625 49.027344 C 47.378906 48.539062 48.894531 47.617188 50.101562 46.253906 C 50.621094 45.667969 51.128906 45.007812 51.539062 44.296875 C 51.652344 44.347656 51.769531 44.410156 51.882812 44.492188 C 52.59375 44.984375 52.476562 45.804688 52.429688 46.566406 C 52.402344 46.945312 52.417969 47.351562 52.539062 47.710938 C 52.476562 47.730469 52.410156 47.746094 52.339844 47.753906 C 52.0625 47.800781 51.773438 47.765625 51.539062 47.964844 C 51.316406 48.15625 51.269531 48.449219 51.304688 48.730469 C 51.394531 49.410156 51.773438 50.121094 52.0625 50.738281 C 52.3125 51.261719 52.675781 51.851562 53.355469 51.667969 C 53.960938 51.5 54.242188 50.894531 54.34375 50.324219 C 54.402344 49.984375 54.425781 49.628906 54.585938 49.320312 C 54.722656 49.054688 54.933594 48.839844 55.140625 48.625 C 55.511719 48.242188 55.917969 47.835938 56.054688 47.300781 C 56.230469 46.597656 55.933594 45.921875 55.640625 45.300781 C 55.394531 44.773438 55.183594 44.238281 55.011719 43.691406 C 55.851562 43.667969 56.679688 43.445312 57.414062 43.027344 C 57.84375 42.78125 58.375 42.3125 58.832031 42.753906 C 59.191406 43.101562 59.410156 43.703125 59.539062 44.171875 C 59.683594 44.683594 59.695312 45.292969 59.332031 45.722656 C 59.078125 46.023438 58.699219 46.257812 58.667969 46.691406 C 58.652344 46.890625 58.71875 47.058594 58.808594 47.222656 C 58.800781 47.222656 58.796875 47.222656 58.789062 47.226562 C 58.394531 47.316406 58.050781 47.539062 57.890625 47.917969 C 57.722656 48.320312 57.785156 48.777344 57.871094 49.195312 C 57.972656 49.6875 58.152344 50.171875 58.382812 50.621094 C 58.535156 50.914062 58.777344 51.503906 59.175781 51.5 C 59.542969 51.492188 59.820312 50.984375 59.988281 50.710938 C 60.269531 50.238281 60.453125 49.714844 60.53125 49.171875 C 61.238281 48.398438 61.957031 47.570312 62.277344 46.554688 C 62.449219 46.011719 62.460938 45.460938 62.363281 44.902344 C 62.25 44.269531 62.0625 43.683594 62.164062 43.03125 C 62.253906 42.492188 62.402344 41.933594 62.222656 41.390625 C 62.070312 40.9375 61.742188 40.570312 61.347656 40.316406 C 60.710938 39.90625 59.988281 39.847656 59.261719 39.917969 C 58.183594 38.816406 56.707031 38.195312 55.167969 38.1875 C 54.832031 36.992188 54.808594 35.71875 55.335938 34.550781 C 55.613281 33.933594 56.515625 32.597656 57.050781 32.207031 C 57.402344 32.289062 57.746094 32.425781 58.054688 32.609375 C 58.523438 32.890625 58.828125 33.351562 59.28125 33.640625 C 60.105469 34.167969 60.835938 34.597656 61.570312 34.074219 C 62.328125 33.539062 62.839844 32.738281 62.914062 31.808594 C 62.949219 31.75 62.964844 31.671875 62.9375 31.582031 C 62.570312 30.40625 62.144531 29.25 61.65625 28.117188 C 62.03125 27.738281 62.0625 27.097656 61.839844 26.589844 C 61.765625 26.429688 61.675781 26.273438 61.578125 26.121094 C 62.425781 25.960938 63.25 25.703125 64.023438 25.296875 C 65.605469 24.472656 66.945312 22.996094 67.195312 21.183594 C 67.230469 20.929688 66.914062 20.636719 66.695312 20.894531 Z M 66.695312 20.894531 " fill-opacity="1" fill-rule="nonzero"/></g></g></g><g transform="matrix(1, 0, 0, 1, 89, 9)"><g clip-path="url(#c8e2cf403d)"><g fill="#ffffff" fill-opacity="1"><g transform="translate(1.062846, 63.287832)"><g><path d="M 13.359375 0.4375 C 9.054688 0.4375 5.945312 -0.628906 4.03125 -2.765625 C 2.113281 -4.898438 1.15625 -8.34375 1.15625 -13.09375 L 1.15625 -17.71875 L 10.484375 -17.71875 L 10.484375 -11.8125 C 10.484375 -9.457031 11.238281 -8.28125 12.75 -8.28125 C 13.601562 -8.28125 14.191406 -8.53125 14.515625 -9.03125 C 14.847656 -9.53125 15.015625 -10.367188 15.015625 -11.546875 C 15.015625 -13.085938 14.832031 -14.363281 14.46875 -15.375 C 14.101562 -16.382812 13.632812 -17.226562 13.0625 -17.90625 C 12.488281 -18.59375 11.46875 -19.65625 10 -21.09375 L 5.90625 -25.1875 C 2.738281 -28.269531 1.15625 -31.691406 1.15625 -35.453125 C 1.15625 -39.503906 2.082031 -42.585938 3.9375 -44.703125 C 5.800781 -46.816406 8.519531 -47.875 12.09375 -47.875 C 16.363281 -47.875 19.4375 -46.738281 21.3125 -44.46875 C 23.1875 -42.207031 24.125 -38.664062 24.125 -33.84375 L 14.46875 -33.84375 L 14.40625 -37.109375 C 14.40625 -37.734375 14.226562 -38.226562 13.875 -38.59375 C 13.53125 -38.96875 13.046875 -39.15625 12.421875 -39.15625 C 11.679688 -39.15625 11.128906 -38.953125 10.765625 -38.546875 C 10.398438 -38.140625 10.21875 -37.585938 10.21875 -36.890625 C 10.21875 -35.335938 11.097656 -33.734375 12.859375 -32.078125 L 18.390625 -26.78125 C 19.679688 -25.53125 20.75 -24.34375 21.59375 -23.21875 C 22.4375 -22.09375 23.113281 -20.765625 23.625 -19.234375 C 24.144531 -17.710938 24.40625 -15.898438 24.40625 -13.796875 C 24.40625 -9.128906 23.546875 -5.585938 21.828125 -3.171875 C 20.117188 -0.765625 17.296875 0.4375 13.359375 0.4375 Z M 13.359375 0.4375 "/></g></g></g><g fill="#ffffff" fill-opacity="1"><g transform="translate(26.517086, 63.287832)"><g><path d="M 6.1875 0 L 6.1875 -38.328125 L 0.546875 -38.328125 L 0.546875 -47.4375 L 21.3125 -47.4375 L 21.3125 -38.328125 L 15.6875 -38.328125 L 15.6875 0 Z M 6.1875 0 "/></g></g></g><g fill="#ffffff" fill-opacity="1"><g transform="translate(48.38232, 63.287832)"><g><path d="M 13.421875 0.4375 C 9.585938 0.4375 6.675781 -0.726562 4.6875 -3.0625 C 2.707031 -5.40625 1.71875 -8.691406 1.71875 -12.921875 L 1.71875 -35.5 C 1.71875 -39.59375 2.707031 -42.675781 4.6875 -44.75 C 6.675781 -46.832031 9.585938 -47.875 13.421875 -47.875 C 17.242188 -47.875 20.148438 -46.832031 22.140625 -44.75 C 24.128906 -42.675781 25.125 -39.59375 25.125 -35.5 L 25.125 -12.921875 C 25.125 -8.648438 24.128906 -5.351562 22.140625 -3.03125 C 20.148438 -0.71875 17.242188 0.4375 13.421875 0.4375 Z M 13.421875 -8.28125 C 14.265625 -8.28125 14.832031 -8.644531 15.125 -9.375 C 15.425781 -10.113281 15.578125 -11.148438 15.578125 -12.484375 L 15.578125 -35.671875 C 15.578125 -36.703125 15.4375 -37.539062 15.15625 -38.1875 C 14.882812 -38.832031 14.320312 -39.15625 13.46875 -39.15625 C 11.882812 -39.15625 11.09375 -37.957031 11.09375 -35.5625 L 11.09375 -12.421875 C 11.09375 -11.054688 11.257812 -10.023438 11.59375 -9.328125 C 11.925781 -8.628906 12.535156 -8.28125 13.421875 -8.28125 Z M 13.421875 -8.28125 "/></g></g></g><g fill="#ffffff" fill-opacity="1"><g transform="translate(75.216941, 63.287832)"><g><path d="M 13.140625 0.4375 C 9.679688 0.4375 6.910156 -0.644531 4.828125 -2.8125 C 2.753906 -4.988281 1.71875 -7.972656 1.71875 -11.765625 L 1.71875 -33.625 C 1.71875 -38.34375 2.65625 -41.894531 4.53125 -44.28125 C 6.40625 -46.675781 9.347656 -47.875 13.359375 -47.875 C 16.859375 -47.875 19.675781 -46.914062 21.8125 -45 C 23.945312 -43.082031 25.015625 -40.320312 25.015625 -36.71875 L 25.015625 -28.546875 L 15.578125 -28.546875 L 15.578125 -35.5625 C 15.578125 -36.925781 15.410156 -37.863281 15.078125 -38.375 C 14.742188 -38.894531 14.171875 -39.15625 13.359375 -39.15625 C 12.515625 -39.15625 11.9375 -38.859375 11.625 -38.265625 C 11.3125 -37.679688 11.15625 -36.816406 11.15625 -35.671875 L 11.15625 -11.875 C 11.15625 -10.625 11.335938 -9.710938 11.703125 -9.140625 C 12.078125 -8.566406 12.628906 -8.28125 13.359375 -8.28125 C 14.835938 -8.28125 15.578125 -9.476562 15.578125 -11.875 L 15.578125 -20.4375 L 25.125 -20.4375 L 25.125 -11.484375 C 25.125 -3.535156 21.128906 0.4375 13.140625 0.4375 Z M 13.140625 0.4375 "/></g></g></g><g fill="#ffffff" fill-opacity="1"><g transform="translate(101.388967, 63.287832)"><g><path d="M 2.09375 0 L 2.09375 -47.4375 L 11.484375 -47.4375 L 11.484375 -28.4375 L 15.90625 -47.4375 L 25.453125 -47.4375 L 20.15625 -25.734375 L 26.5625 0 L 16.734375 0 L 11.546875 -22.96875 L 11.546875 0 Z M 2.09375 0 "/></g></g></g><g fill="#ffffff" fill-opacity="1"><g transform="translate(127.450573, 63.287832)"><g/></g></g><g fill="#ffffff" fill-opacity="1"><g transform="translate(140.370947, 63.287832)"><g><path d="M 13.359375 0.4375 C 9.054688 0.4375 5.945312 -0.628906 4.03125 -2.765625 C 2.113281 -4.898438 1.15625 -8.34375 1.15625 -13.09375 L 1.15625 -17.71875 L 10.484375 -17.71875 L 10.484375 -11.8125 C 10.484375 -9.457031 11.238281 -8.28125 12.75 -8.28125 C 13.601562 -8.28125 14.191406 -8.53125 14.515625 -9.03125 C 14.847656 -9.53125 15.015625 -10.367188 15.015625 -11.546875 C 15.015625 -13.085938 14.832031 -14.363281 14.46875 -15.375 C 14.101562 -16.382812 13.632812 -17.226562 13.0625 -17.90625 C 12.488281 -18.59375 11.46875 -19.65625 10 -21.09375 L 5.90625 -25.1875 C 2.738281 -28.269531 1.15625 -31.691406 1.15625 -35.453125 C 1.15625 -39.503906 2.082031 -42.585938 3.9375 -44.703125 C 5.800781 -46.816406 8.519531 -47.875 12.09375 -47.875 C 16.363281 -47.875 19.4375 -46.738281 21.3125 -44.46875 C 23.1875 -42.207031 24.125 -38.664062 24.125 -33.84375 L 14.46875 -33.84375 L 14.40625 -37.109375 C 14.40625 -37.734375 14.226562 -38.226562 13.875 -38.59375 C 13.53125 -38.96875 13.046875 -39.15625 12.421875 -39.15625 C 11.679688 -39.15625 11.128906 -38.953125 10.765625 -38.546875 C 10.398438 -38.140625 10.21875 -37.585938 10.21875 -36.890625 C 10.21875 -35.335938 11.097656 -33.734375 12.859375 -32.078125 L 18.390625 -26.78125 C 19.679688 -25.53125 20.75 -24.34375 21.59375 -23.21875 C 22.4375 -22.09375 23.113281 -20.765625 23.625 -19.234375 C 24.144531 -17.710938 24.40625 -15.898438 24.40625 -13.796875 C 24.40625 -9.128906 23.546875 -5.585938 21.828125 -3.171875 C 20.117188 -0.765625 17.296875 0.4375 13.359375 0.4375 Z M 13.359375 0.4375 "/></g></g></g><g fill="#ffffff" fill-opacity="1"><g transform="translate(165.825187, 63.287832)"><g><path d="M 2.09375 0 L 2.09375 -47.4375 L 21.09375 -47.4375 L 21.09375 -38.265625 L 11.765625 -38.265625 L 11.765625 -29.046875 L 20.703125 -29.046875 L 20.703125 -20.09375 L 11.765625 -20.09375 L 11.765625 -9.21875 L 21.703125 -9.21875 L 21.703125 0 Z M 2.09375 0 "/></g></g></g><g fill="#ffffff" fill-opacity="1"><g transform="translate(188.573876, 63.287832)"><g><path d="M 2.09375 0 L 2.09375 -47.4375 L 11.875 -47.4375 L 16.234375 -24.734375 L 16.234375 -47.4375 L 25.40625 -47.4375 L 25.40625 0 L 16.125 0 L 11.375 -23.75 L 11.375 0 Z M 2.09375 0 "/></g></g></g><g fill="#ffffff" fill-opacity="1"><g transform="translate(216.071072, 63.287832)"><g><path d="M 6.1875 0 L 6.1875 -38.328125 L 0.546875 -38.328125 L 0.546875 -47.4375 L 21.3125 -47.4375 L 21.3125 -38.328125 L 15.6875 -38.328125 L 15.6875 0 Z M 6.1875 0 "/></g></g></g><g fill="#ffffff" fill-opacity="1"><g transform="translate(237.936306, 63.287832)"><g><path d="M 1.65625 0 L 1.65625 -47.4375 L 10.828125 -47.4375 L 10.828125 0 Z M 1.65625 0 "/></g></g></g><g fill="#ffffff" fill-opacity="1"><g transform="translate(250.470173, 63.287832)"><g><path d="M 2.09375 0 L 2.09375 -47.4375 L 11.875 -47.4375 L 16.234375 -24.734375 L 16.234375 -47.4375 L 25.40625 -47.4375 L 25.40625 0 L 16.125 0 L 11.375 -23.75 L 11.375 0 Z M 2.09375 0 "/></g></g></g><g fill="#ffffff" fill-opacity="1"><g transform="translate(277.96737, 63.287832)"><g><path d="M 2.09375 0 L 2.09375 -47.4375 L 21.09375 -47.4375 L 21.09375 -38.265625 L 11.765625 -38.265625 L 11.765625 -29.046875 L 20.703125 -29.046875 L 20.703125 -20.09375 L 11.765625 -20.09375 L 11.765625 -9.21875 L 21.703125 -9.21875 L 21.703125 0 Z M 2.09375 0 "/></g></g></g><g fill="#ffffff" fill-opacity="1"><g transform="translate(300.716058, 63.287832)"><g><path d="M 2.09375 0 L 2.09375 -47.4375 L 11.59375 -47.4375 L 11.59375 -8.0625 L 21.375 -8.0625 L 21.375 0 Z M 2.09375 0 "/></g></g></g></g></g></svg>